<svg width="31" height="32" viewBox="0 0 31 32" fill="none" xmlns="http://www.w3.org/2000/svg">
<g style="mix-blend-mode:multiply" clip-path="url(#clip0_39_251)">
<path d="M5.16884 1.05707C5.17885 1.0118 5.18522 0.965777 5.1879 0.919461C5.12464 0.156898 5.36121 -0.0026283 6.10385 1.23161e-06C9.67144 0.0157784 13.239 0.0070148 16.8066 0.0070148C17.5241 0.0070148 17.6342 0.116579 17.6463 0.83181C17.6463 0.895796 17.6524 0.959781 17.6576 1.05707H22.1047C22.6792 1.05707 22.8352 1.21397 22.8352 1.79422V19.7863L24.1775 19.9467C24.1333 19.2368 24.1333 18.525 24.038 17.8265C23.7945 16.034 25.1454 14.6062 26.811 14.7087C26.8608 14.7076 26.9106 14.7038 26.96 14.6973V13.6201C25.8517 13.3694 25.0371 12.7436 24.6116 11.6672C24.2304 10.7031 24.3335 9.76519 24.8404 8.86239C24.9265 8.70699 24.9634 8.52864 24.9461 8.35138C24.7945 7.23471 25.1628 6.34505 26.0727 5.70608C26.4928 5.40928 26.993 5.25012 27.5055 5.25012C28.018 5.25012 28.5181 5.40928 28.9383 5.70608C29.8473 6.34505 30.2148 7.23822 30.0553 8.35401C30.0308 8.49941 30.0517 8.64893 30.1151 8.78175C31.2572 10.7364 30.3612 12.989 28.1948 13.5798C28.1454 13.5938 28.0952 13.6052 28.0363 13.6192V14.6842C28.3032 14.7061 28.5623 14.7052 28.8162 14.7508C30.1853 14.9953 31.0857 16.1725 30.9929 17.5688C30.7382 21.3868 30.4851 25.2052 30.2338 29.0239C30.1524 30.265 29.2806 31.2502 28.0406 31.4737C26.7191 31.7121 25.4843 31.0819 24.9886 29.9144C24.947 29.8162 24.9106 29.7163 24.8551 29.5743L24.6082 29.8548C23.7685 30.8102 22.7798 31.4676 21.4557 31.3782C21.109 31.3536 20.7668 31.2169 20.421 31.1397C20.3231 31.1178 20.2044 31.0863 20.1194 31.1213C18.6047 31.7349 17.3222 31.2966 16.2061 30.2107C15.2026 29.2325 14.6463 27.994 14.3335 26.6415C14.2642 26.3452 14.1602 26.2497 13.8491 26.2506C9.49206 26.264 5.13533 26.2669 0.778889 26.2593C0.138508 26.2593 -0.00100708 26.1191 -0.00100708 25.4705V1.84856C-0.00100708 1.19732 0.135909 1.0597 0.772824 1.0597H5.16797L5.16884 1.05707ZM19.7122 19.4313C19.53 19.4238 19.3487 19.4024 19.1697 19.3674C18.5276 19.1921 17.8465 19.0895 17.259 18.7967C16.0744 18.2077 15.5155 17.1796 15.5692 15.8324C15.5856 15.4204 15.7772 15.2188 16.1758 15.2416C16.6409 15.2554 17.1043 15.3044 17.5623 15.388C19.9019 15.8771 20.8716 17.6669 20.7633 19.3761C20.746 19.6522 20.7633 19.9301 20.7633 20.229L21.7858 19.9406V2.12378H17.6047C17.1541 3.47273 16.285 4.19936 15.0735 4.20462C12.631 4.21455 10.1879 4.21455 7.74423 4.20462C7.20465 4.1992 6.68043 4.02226 6.24576 3.69885C5.81109 3.37543 5.488 2.92192 5.32222 2.40251C5.29189 2.31048 5.26416 2.21845 5.23556 2.1308H1.06225V25.1935H14.0692C14.0614 25.0682 14.0458 24.9612 14.0501 24.8552C14.0787 24.104 14.0397 23.3406 14.1593 22.6043C14.3664 21.3316 15.0311 20.3482 16.3188 20.0002C16.8889 19.8468 17.5163 19.8433 18.1116 19.8766C18.6472 19.9055 19.1758 20.0782 19.7122 20.1878V19.4313ZM14.9782 24.0654C15.0649 25.0682 15.1879 26.0402 15.4981 26.9833C15.856 28.0825 16.3829 29.0773 17.3179 29.7882C18.1264 30.4017 18.9999 30.5534 19.9219 30.038C20.0185 29.9776 20.1298 29.9457 20.2434 29.9457C20.3569 29.9457 20.4682 29.9776 20.5649 30.038C21.473 30.5455 22.3318 30.4087 23.1446 29.8136C23.8283 29.3131 24.2867 28.6286 24.6428 27.8686C24.6814 27.7793 24.6975 27.6817 24.6896 27.5846C24.5579 25.5555 24.4123 23.5273 24.2945 21.4973C24.2763 21.1817 24.1558 21.045 23.8768 20.995C23.8032 20.981 23.7312 20.9538 23.6576 20.9398C22.6056 20.7461 21.6177 21.0073 20.6593 21.4079C20.5287 21.4692 20.3865 21.5009 20.2425 21.5009C20.0985 21.5009 19.9563 21.4692 19.8257 21.4079C18.9929 21.0503 18.1272 20.825 17.2122 20.882C16.2789 20.9407 15.5952 21.3851 15.3188 22.3063C15.1446 22.876 15.0857 23.4782 14.9782 24.0654ZM25.5059 24.161H26.9574C27.4895 24.161 27.7373 24.3214 27.7512 24.6702C27.765 25.0191 27.4999 25.211 26.9548 25.211H25.5709C25.6576 26.4645 25.7442 27.6653 25.8153 28.8626C25.8768 29.8548 26.5085 30.4605 27.5016 30.4613C28.4947 30.4622 29.1394 29.8574 29.2026 28.8766C29.3404 26.7388 29.4886 24.6019 29.6307 22.4649C29.7425 20.7996 29.8569 19.1281 29.9591 17.4583C30.0137 16.5511 29.3526 15.793 28.4756 15.7658C27.8283 15.7456 27.1758 15.7412 26.5311 15.7658C25.5042 15.8061 24.8136 16.8509 25.1446 17.8589C25.7642 17.8589 26.3907 17.8536 27.0163 17.8589C27.4201 17.8589 27.6688 18.1622 27.5692 18.518C27.4903 18.7985 27.2815 18.9081 27.0016 18.9072C26.4002 18.9072 25.798 18.9072 25.1593 18.9072C25.207 19.625 25.2529 20.3052 25.3006 21.0108C25.8725 21.0108 26.4115 21.0108 26.947 21.0108C27.3629 21.0108 27.5848 21.201 27.5822 21.5367C27.5796 21.8724 27.3552 22.0547 26.9366 22.0565C26.4167 22.0565 25.9054 22.0565 25.3829 22.0565C25.3762 22.1103 25.3727 22.1644 25.3725 22.2186C25.4149 22.8541 25.4591 23.4834 25.5059 24.161ZM6.24683 1.0711C6.06832 2.45247 6.92101 3.20452 8.14544 3.17472C10.4045 3.11775 12.6654 3.15982 14.9253 3.15806C16.0926 3.15806 16.8049 2.25263 16.5657 1.07197L6.24683 1.0711ZM28.025 12.5192C28.3566 12.4352 28.6622 12.2687 28.9139 12.0347C29.1656 11.8007 29.3554 11.5067 29.466 11.1795C29.5766 10.8523 29.6045 10.5024 29.5472 10.1615C29.4898 9.8206 29.349 9.49965 29.1376 9.22789C28.9357 8.96494 28.8508 8.73004 28.9721 8.39083C29.0862 8.07457 29.0943 7.72916 28.9952 7.40779C28.896 7.08643 28.6952 6.80695 28.4236 6.61239C28.1602 6.41671 27.8424 6.31024 27.5156 6.30819C27.1887 6.30615 26.8696 6.40863 26.6038 6.601C26.3268 6.79764 26.1219 7.08145 26.0209 7.40819C25.92 7.73494 25.9287 8.08628 26.0458 8.40748C26.1532 8.71513 26.1038 8.94215 25.9045 9.18758C25.6923 9.43865 25.5443 9.73862 25.4736 10.0611C25.4029 10.3836 25.4116 10.7187 25.499 11.037C25.6827 11.7864 26.3534 12.4456 26.9886 12.492V10.327C26.9886 10.2184 26.9834 10.1079 26.9886 9.99922C27.0085 9.68455 27.2113 9.47332 27.4938 9.46455C27.7763 9.45578 28.0137 9.67754 28.0207 10.008C28.0311 10.8345 28.025 11.6655 28.025 12.5192ZM16.6281 16.3311C16.7598 17.7476 18.3967 18.3471 19.5744 18.319C19.4011 17.2278 18.135 16.3671 16.6281 16.3311Z" fill="#3F3E3E"/>
<path d="M19.7123 19.4313V20.1878C19.1759 20.0782 18.6473 19.9055 18.1118 19.8766C17.5165 19.8433 16.8891 19.8468 16.3189 20.0002C15.0312 20.3508 14.3665 21.3316 14.1594 22.6043C14.0398 23.3406 14.0788 24.104 14.0502 24.8552C14.0459 24.9612 14.0615 25.0682 14.0693 25.1935H1.06238V2.12993H5.23655C5.26428 2.21758 5.29201 2.30962 5.32321 2.40165C5.48954 2.92026 5.81276 3.37291 6.2472 3.69564C6.68164 4.01838 7.20536 4.19489 7.74435 4.20025C10.1874 4.21077 12.6305 4.21077 15.0736 4.20025C16.2868 4.19499 17.1534 3.46836 17.6048 2.11942H21.7825V19.9406L20.76 20.229C20.76 19.9301 20.7452 19.6522 20.76 19.3761C20.8683 17.6634 19.8934 15.8771 17.5589 15.388C17.101 15.3044 16.6375 15.2554 16.1724 15.2416C15.7721 15.2197 15.5806 15.4169 15.5658 15.8324C15.5121 17.1796 16.071 18.2077 17.2556 18.7968C17.8431 19.0895 18.5242 19.1921 19.1664 19.3674C19.3465 19.4026 19.529 19.424 19.7123 19.4313ZM7.00345 6.67025C7.16203 6.5414 7.33014 6.4073 7.49565 6.26968C7.81108 6.00673 7.87087 5.70784 7.66203 5.45102C7.45319 5.19421 7.16896 5.19771 6.85961 5.44051C6.6863 5.579 6.50865 5.72187 6.33967 5.85773C4.9116 4.79978 3.47226 5.31955 2.75995 6.1049C2.35008 6.56013 2.11113 7.1464 2.08476 7.76154C2.05838 8.37668 2.24626 8.98168 2.61564 9.47108C2.98502 9.96049 3.51247 10.3033 4.10607 10.4397C4.69967 10.5761 5.32177 10.4974 5.86394 10.2175C7.1005 9.56887 7.50605 8.32422 7.00345 6.67025ZM6.33361 12.1642C5.90821 11.8104 5.38399 11.6001 4.83448 11.5629C3.27468 11.4753 2.02425 12.7243 2.07624 14.3143C2.12477 15.8044 3.48525 16.9701 4.96272 16.7974C6.48785 16.6221 7.56238 15.1487 7.17936 13.6315C7.04158 13.088 7.09271 12.7892 7.55805 12.5017C7.84141 12.3264 7.85354 11.9924 7.66723 11.7566C7.48092 11.5209 7.19063 11.4937 6.91853 11.6935C6.71922 11.8434 6.53032 12.0012 6.33361 12.1642ZM6.33361 18.4628C6.25302 18.4058 6.19236 18.3611 6.12997 18.3191C5.759 18.0631 5.32872 17.9089 4.88119 17.8714C4.43365 17.834 3.98417 17.9147 3.57669 18.1056C3.16921 18.2965 2.81767 18.591 2.55643 18.9605C2.29519 19.33 2.1332 19.7617 2.08628 20.2134C2.03937 20.6651 2.10913 21.1214 2.28876 21.5377C2.46839 21.954 2.75174 22.3161 3.11111 22.5885C3.47047 22.8608 3.89356 23.0342 4.33902 23.0917C4.78447 23.1492 5.23704 23.0888 5.6525 22.9163C6.80848 22.4369 7.50692 21.1931 7.18283 19.9634C7.03378 19.3963 7.11004 19.0816 7.58491 18.781C7.84487 18.6144 7.84487 18.284 7.66376 18.057C7.48266 17.83 7.19843 17.794 6.94106 17.9807C6.74002 18.1262 6.55111 18.2893 6.33361 18.4628ZM14 7.35568H18.9627C19.0706 7.36305 19.1789 7.35893 19.2859 7.34341C19.4058 7.32746 19.5158 7.26799 19.5955 7.17607C19.6752 7.08416 19.7192 6.96607 19.7192 6.8438C19.7236 6.71689 19.6813 6.59285 19.6004 6.49569C19.5196 6.39854 19.406 6.33518 19.2816 6.31789C19.185 6.30678 19.0876 6.30355 18.9905 6.30825H9.03118C8.94451 6.30321 8.85757 6.30526 8.77122 6.31439C8.49045 6.36084 8.32581 6.53001 8.30761 6.82013C8.30275 6.95302 8.34895 7.08265 8.43651 7.18184C8.52407 7.28103 8.6462 7.34207 8.77728 7.35217C8.87412 7.36037 8.97136 7.36242 9.06844 7.35831L14 7.35568ZM14.013 12.6068C12.3584 12.6068 10.7042 12.6068 9.05025 12.6068C8.95344 12.6007 8.85629 12.6034 8.75995 12.6147C8.48092 12.6673 8.31194 12.8409 8.31194 13.131C8.31194 13.4211 8.48092 13.5947 8.75995 13.6481C8.85658 13.6596 8.95402 13.6622 9.05111 13.656H18.9749C19.0722 13.6626 19.17 13.66 19.2669 13.6481C19.545 13.5947 19.7149 13.422 19.7149 13.1319C19.7149 12.8418 19.5468 12.6673 19.2669 12.6147C19.1703 12.6033 19.0728 12.6007 18.9757 12.6068C17.3218 12.6074 15.6675 12.6083 14.013 12.6095V12.6068ZM11.4506 8.40749C10.6178 8.40749 9.78595 8.40749 8.95319 8.40749C8.54331 8.40749 8.30674 8.60295 8.30674 8.9334C8.30674 9.26384 8.54331 9.4593 8.95233 9.4593C10.5953 9.4593 12.2386 9.4593 13.8821 9.4593C14.2911 9.4593 14.5294 9.26209 14.5294 8.9334C14.5294 8.60471 14.292 8.40749 13.883 8.40749C13.0719 8.40749 12.2617 8.40749 11.4506 8.40749ZM11.4159 15.7588C12.2374 15.7588 13.0624 15.7588 13.8813 15.7588C14.2903 15.7588 14.5277 15.5624 14.5294 15.2329C14.5312 14.9033 14.2929 14.707 13.8847 14.707C12.2412 14.707 10.5979 14.707 8.95493 14.707C8.54418 14.707 8.30761 14.9015 8.30674 15.2329C8.30588 15.5642 8.54245 15.7588 8.95059 15.7588C9.77295 15.7614 10.5944 15.7597 11.4159 15.7597V15.7588ZM11.4159 19.959C12.2383 19.959 13.0624 19.959 13.8813 19.959C14.2894 19.959 14.5277 19.7609 14.5277 19.4331C14.5277 19.1053 14.2903 18.9072 13.8804 18.9072C12.2374 18.9072 10.5942 18.9072 8.95059 18.9072C8.54158 18.9072 8.30501 19.1035 8.30501 19.4331C8.30501 19.7627 8.54245 19.959 8.95146 19.959C9.77468 19.9616 10.5962 19.9599 11.4177 19.9599L11.4159 19.959ZM10.896 21.0108C10.2366 21.0108 9.57624 21.0108 8.9168 21.0108C8.53465 21.0108 8.30415 21.2168 8.30588 21.5367C8.30761 21.8566 8.53898 22.0574 8.922 22.0626C10.2409 22.0626 11.5598 22.0626 12.8787 22.0626C13.2582 22.0626 13.4922 21.854 13.4905 21.5367C13.4887 21.2194 13.2565 21.017 12.8743 21.0108C12.2158 21.0082 11.5563 21.0108 10.8969 21.0108H10.896Z" fill="white"/>
<path d="M14.9783 24.0654C15.0867 23.4782 15.1447 22.876 15.3146 22.3124C15.591 21.3912 16.2747 20.9468 17.208 20.8881C18.123 20.8294 18.9887 21.0546 19.8215 21.414C19.9521 21.4753 20.0943 21.507 20.2383 21.507C20.3823 21.507 20.5245 21.4753 20.6551 21.414C21.6135 21.0134 22.6014 20.7522 23.6534 20.9459C23.727 20.96 23.799 20.9871 23.8726 21.0012C24.1516 21.0511 24.2721 21.1879 24.2903 21.5034C24.4081 23.5334 24.5503 25.5616 24.6854 27.5908C24.6933 27.6879 24.6772 27.7854 24.6386 27.8747C24.2825 28.6347 23.8241 29.3192 23.1404 29.8197C22.3275 30.4149 21.4688 30.5516 20.5606 30.0441C20.464 29.9837 20.3527 29.9518 20.2392 29.9518C20.1256 29.9518 20.0143 29.9837 19.9177 30.0441C18.9957 30.556 18.1187 30.4079 17.3137 29.7943C16.3804 29.0808 15.8535 28.086 15.4939 26.9895C15.188 26.0402 15.0633 25.0682 14.9783 24.0654Z" fill="white"/>
<path d="M25.5061 24.161C25.4593 23.4852 25.4194 22.8541 25.3726 22.2222C25.3729 22.1679 25.3763 22.1138 25.383 22.06C25.9029 22.06 26.4229 22.06 26.9367 22.06C27.3553 22.06 27.5788 21.8759 27.5823 21.5402C27.5858 21.2045 27.3631 21.0143 26.9471 21.0143C26.409 21.0143 25.87 21.0143 25.3007 21.0143C25.253 20.3131 25.2071 19.6321 25.1594 18.9107C25.7981 18.9107 26.4003 18.9107 27.0017 18.9107C27.2816 18.9107 27.4905 18.802 27.5693 18.5215C27.669 18.1657 27.4203 17.8668 27.0165 17.8624C26.3908 17.8545 25.7643 17.8624 25.1447 17.8624C24.8146 16.8544 25.5052 15.8096 26.5312 15.7693C27.1785 15.7439 27.831 15.7483 28.4757 15.7693C29.3509 15.7973 30.0139 16.5581 29.9593 17.4618C29.857 19.1272 29.7426 20.7996 29.6308 22.4685C29.4887 24.6054 29.3405 26.7423 29.2028 28.8801C29.1395 29.8609 28.5 30.4657 27.5017 30.4649C26.5035 30.464 25.8769 29.8583 25.8154 28.8661C25.7444 27.6635 25.6577 26.4636 25.5711 25.2111H26.9575C27.5026 25.2111 27.766 25.0357 27.7539 24.6702C27.7418 24.3047 27.4939 24.161 26.9601 24.161H25.5061Z" fill="white"/>
<path d="M6.24698 1.07111H16.565C16.8042 2.25176 16.0919 3.15545 14.9246 3.1572C12.6647 3.1572 10.4038 3.11688 8.14473 3.17385C6.92029 3.20453 6.0676 2.45249 6.24698 1.07111Z" fill="white"/>
<path d="M28.0251 12.5192C28.0251 11.6655 28.0312 10.8345 28.0251 10.0045C28.0251 9.67404 27.792 9.45404 27.4983 9.46105C27.2045 9.46806 27.013 9.68105 26.9931 9.99572C26.9861 10.1044 26.9931 10.2148 26.9931 10.3235V12.4885C26.3579 12.4421 25.6872 11.7873 25.5035 11.0335C25.4164 10.7155 25.4078 10.3807 25.4786 10.0585C25.5493 9.73638 25.6971 9.4367 25.909 9.18582C26.1083 8.9404 26.1577 8.71339 26.0503 8.40573C25.9336 8.08476 25.9251 7.7338 26.026 7.40743C26.127 7.08105 26.3317 6.79755 26.6083 6.601C26.8741 6.40863 27.1932 6.30615 27.52 6.3082C27.8469 6.31024 28.1647 6.41671 28.4281 6.61239C28.6997 6.80695 28.9005 7.08643 28.9996 7.4078C29.0988 7.72916 29.0907 8.07457 28.9766 8.39083C28.8553 8.73004 28.9402 8.96406 29.1421 9.22789C29.3535 9.49995 29.4941 9.82121 29.5512 10.1624C29.6083 10.5035 29.58 10.8537 29.469 11.181C29.3579 11.5082 29.1676 11.8021 28.9154 12.0359C28.6632 12.2696 28.3571 12.4358 28.0251 12.5192Z" fill="white"/>
<path d="M16.6282 16.3311C18.1352 16.3671 19.4012 17.2278 19.5745 18.319C18.3969 18.3427 16.76 17.7476 16.6282 16.3311Z" fill="white"/>
<path d="M7.00347 6.67024C7.50607 8.32422 7.10053 9.56886 5.86396 10.2175C5.32179 10.4974 4.69969 10.576 4.10609 10.4396C3.51249 10.3033 2.98504 9.96048 2.61566 9.47108C2.24628 8.98167 2.05841 8.37667 2.08478 7.76153C2.11115 7.14639 2.3501 6.56012 2.75998 6.1049C3.47228 5.31604 4.91162 4.79977 6.3397 5.85772C6.50867 5.72186 6.68632 5.57899 6.85963 5.4405C7.16899 5.19771 7.45928 5.20297 7.66205 5.45102C7.86482 5.69907 7.8111 6.00848 7.49568 6.26968C7.33016 6.40729 7.16205 6.5414 7.00347 6.67024ZM5.48094 6.55279C4.72618 6.13119 3.91595 6.29597 3.43242 6.92881C3.21004 7.22722 3.09959 7.59577 3.12074 7.96884C3.1419 8.34191 3.29328 8.69528 3.54793 8.96601C3.80258 9.23674 4.14396 9.40725 4.51129 9.44718C4.87861 9.48712 5.24802 9.39388 5.55373 9.18407C6.13779 8.77649 6.38649 8.00078 6.10833 7.39775C5.76864 7.67209 5.43328 7.94469 5.0962 8.2129C4.75911 8.48111 4.47661 8.46709 4.27124 8.20501C4.06587 7.94293 4.13086 7.65369 4.45321 7.39073C4.77557 7.12778 5.12046 6.8473 5.48094 6.55279Z" fill="#3F3E3E"/>
<path d="M6.33361 12.1642C6.53205 12.0047 6.72096 11.8434 6.92027 11.6961C7.19236 11.4928 7.48266 11.5208 7.66897 11.7592C7.85528 11.9977 7.84228 12.3299 7.55978 12.5043C7.09531 12.7918 7.03985 13.0907 7.1811 13.6341C7.56498 15.1513 6.48786 16.6213 4.96446 16.8001C3.48699 16.9754 2.12651 15.8026 2.07798 14.3169C2.02599 12.7269 3.27729 11.4753 4.83621 11.5655C5.38483 11.6024 5.90836 11.8117 6.33361 12.1642ZM6.13171 13.6771C5.75389 13.983 5.40207 14.2687 5.04938 14.5536C4.83361 14.7289 4.60397 14.7753 4.36654 14.6018C4.07278 14.3861 4.08318 13.9996 4.396 13.7375C4.74869 13.4421 5.11004 13.1582 5.48179 12.861C4.76082 12.4473 3.97312 12.5867 3.47832 13.1792C3.25053 13.4605 3.12578 13.8127 3.12518 14.1763C3.12459 14.5399 3.24818 14.8926 3.47505 15.1747C3.70192 15.4567 4.01814 15.6509 4.37023 15.7242C4.72232 15.7976 5.08865 15.7457 5.40727 15.5773C6.06238 15.2153 6.36567 14.4633 6.12997 13.6771H6.13171Z" fill="#3F3E3E"/>
<path d="M6.33363 18.4628C6.55026 18.2875 6.73917 18.1262 6.94021 17.9807C7.20018 17.794 7.48181 17.8308 7.66292 18.057C7.84403 18.2831 7.84576 18.6144 7.58406 18.781C7.10919 19.0816 7.03293 19.3945 7.18198 19.9634C7.50607 21.1905 6.80763 22.4369 5.65165 22.9164C5.23619 23.0888 4.78362 23.1492 4.33816 23.0917C3.89271 23.0342 3.46962 22.8608 3.11026 22.5885C2.75089 22.3161 2.46754 21.9541 2.28791 21.5378C2.10828 21.1215 2.03852 20.6651 2.08543 20.2134C2.13235 19.7617 2.29435 19.33 2.55558 18.9605C2.81682 18.5911 3.16836 18.2965 3.57584 18.1056C3.98332 17.9147 4.4328 17.834 4.88034 17.8714C5.32788 17.9089 5.75816 18.0631 6.12912 18.3191C6.19325 18.3611 6.2539 18.4058 6.33363 18.4628ZM6.12132 19.9844C5.74697 20.2868 5.41421 20.584 5.052 20.8364C4.89864 20.9455 4.70987 20.9913 4.52427 20.9644C4.38129 20.9276 4.19758 20.7303 4.18458 20.5892C4.18186 20.4907 4.19872 20.3926 4.23414 20.3007C4.26957 20.2089 4.32284 20.1252 4.39082 20.0545C4.72357 19.7355 5.10139 19.4629 5.47054 19.164C5.16549 18.962 4.79845 18.8786 4.43731 18.9292C4.07617 18.9798 3.74536 19.161 3.50607 19.4392C3.26651 19.7178 3.13112 20.0725 3.12346 20.4416C3.1158 20.8107 3.23636 21.1709 3.46414 21.4593C3.69193 21.7478 4.01252 21.9463 4.37011 22.0204C4.72769 22.0944 5.09962 22.0393 5.42115 21.8645C5.74092 21.6877 5.98745 21.4008 6.11606 21.0559C6.24467 20.7109 6.24685 20.3308 6.12219 19.9844H6.12132Z" fill="#3F3E3E"/>
<path d="M14 7.35567H9.06932C8.97223 7.35977 8.87498 7.35772 8.77815 7.34953C8.64707 7.33943 8.52494 7.27838 8.43738 7.17919C8.34982 7.08 8.30362 6.95037 8.30848 6.81749C8.32668 6.52736 8.49133 6.3582 8.77209 6.31174C8.85844 6.30262 8.94538 6.30056 9.03205 6.30561H18.9853C19.0824 6.30091 19.1798 6.30413 19.2764 6.31525C19.4008 6.33254 19.5144 6.39589 19.5952 6.49305C19.6761 6.5902 19.7184 6.71425 19.714 6.84116C19.714 6.96342 19.67 7.08151 19.5903 7.17343C19.5106 7.26535 19.4006 7.32482 19.2807 7.34076C19.1737 7.35629 19.0654 7.3604 18.9575 7.35304L14 7.35567Z" fill="#3F3E3E"/>
<path d="M14.013 12.6095C15.667 12.6095 17.3212 12.6095 18.9757 12.6095C19.0728 12.6033 19.1703 12.6059 19.2669 12.6174C19.5468 12.67 19.7149 12.8444 19.7149 13.1345C19.7149 13.4246 19.5416 13.5973 19.2669 13.6508C19.17 13.6626 19.0722 13.6653 18.9749 13.6587H9.05027C8.95318 13.6648 8.85573 13.6622 8.7591 13.6508C8.48008 13.5973 8.31023 13.4246 8.3111 13.1336C8.31197 12.8426 8.48008 12.67 8.7591 12.6174C8.85573 12.6059 8.95318 12.6033 9.05027 12.6095C10.7054 12.6083 12.3596 12.6083 14.013 12.6095Z" fill="#3F3E3E"/>
<path d="M11.4506 8.40747C12.2617 8.40747 13.0719 8.40747 13.883 8.40747C14.292 8.40747 14.5295 8.60468 14.5295 8.93337C14.5295 9.26206 14.2912 9.45928 13.8821 9.45928C12.2392 9.45928 10.5959 9.45928 8.95234 9.45928C8.54333 9.45928 8.30676 9.26206 8.30676 8.93337C8.30676 8.60468 8.54333 8.40747 8.95321 8.40747C9.78597 8.40747 10.6179 8.40747 11.4506 8.40747Z" fill="#3F3E3E"/>
<path d="M11.416 15.7596C10.5945 15.7596 9.76951 15.7596 8.95062 15.7596C8.54248 15.7596 8.30504 15.5607 8.30677 15.2337C8.30851 14.9068 8.54421 14.7078 8.95495 14.7078C10.5979 14.7078 12.2412 14.7078 13.8848 14.7078C14.2929 14.7078 14.5303 14.9059 14.5295 15.2337C14.5286 15.5615 14.2903 15.7596 13.8813 15.7596C13.0589 15.7614 12.2374 15.7596 11.416 15.7596Z" fill="#3F3E3E"/>
<path d="M11.4177 19.9599C10.5962 19.9599 9.77123 19.9599 8.95321 19.9599C8.5442 19.9599 8.30676 19.7626 8.30676 19.434C8.30676 19.1053 8.54333 18.9081 8.95234 18.9081C10.5953 18.9081 12.2386 18.9081 13.8821 18.9081C14.292 18.9081 14.5286 19.1044 14.5295 19.434C14.5303 19.7635 14.2912 19.9599 13.883 19.9599C13.0615 19.9616 12.24 19.9599 11.4177 19.9599Z" fill="#3F3E3E"/>
<path d="M10.8969 21.0108C11.5563 21.0108 12.2158 21.0108 12.8752 21.0108C13.2574 21.0108 13.4896 21.2142 13.4914 21.5367C13.4931 21.8593 13.2591 22.0626 12.8796 22.0626C11.5607 22.0661 10.2418 22.0661 8.92289 22.0626C8.53988 22.0626 8.30851 21.8593 8.30677 21.5367C8.30504 21.2142 8.53554 21.0108 8.91769 21.0108C9.57714 21.0073 10.2375 21.0108 10.8969 21.0108Z" fill="#3F3E3E"/>
<path d="M5.48094 6.55277C5.11872 6.84728 4.78337 7.11812 4.44975 7.39071C4.11612 7.66331 4.06326 7.94554 4.26777 8.20499C4.47228 8.46444 4.76777 8.46794 5.09273 8.21288C5.41768 7.95782 5.76517 7.67207 6.10486 7.39773C6.38302 8.00077 6.13432 8.77647 5.55026 9.18405C5.24446 9.39148 4.87596 9.4828 4.50999 9.44184C4.14403 9.40088 3.80418 9.23029 3.5506 8.96026C3.29702 8.69023 3.14606 8.33817 3.12443 7.96638C3.1028 7.59459 3.2119 7.22705 3.43241 6.92879C3.91595 6.29595 4.72617 6.12854 5.48094 6.55277Z" fill="white"/>
<path d="M6.12998 13.6771C6.36568 14.4659 6.06239 15.2153 5.40555 15.5721C5.08686 15.7419 4.71989 15.7948 4.36697 15.722C4.01405 15.6492 3.69691 15.4551 3.46941 15.1726C3.24191 14.8902 3.11806 14.5368 3.1189 14.1725C3.11974 13.8081 3.24521 13.4553 3.474 13.1739C3.9688 12.5814 4.7565 12.4421 5.47747 12.8558C5.10572 13.1573 4.74437 13.4413 4.39168 13.7323C4.07886 13.9952 4.06846 14.3809 4.36222 14.5965C4.59965 14.7718 4.82929 14.7227 5.04506 14.5483C5.40035 14.2687 5.75217 13.983 6.12998 13.6771Z" fill="white"/>
<path d="M6.1222 19.9844C6.24693 20.3307 6.24488 20.7108 6.11644 21.0557C5.98799 21.4006 5.74164 21.6875 5.42203 21.8645C5.1005 22.0393 4.72856 22.0944 4.37098 22.0204C4.0134 21.9463 3.69281 21.7478 3.46502 21.4593C3.23723 21.1708 3.11668 20.8107 3.12434 20.4416C3.132 20.0725 3.26739 19.7178 3.50695 19.4392C3.74624 19.161 4.07705 18.9798 4.43819 18.9292C4.79933 18.8786 5.16637 18.962 5.47142 19.164C5.10227 19.4629 4.72445 19.7355 4.39169 20.0545C4.32372 20.1252 4.27044 20.2089 4.23502 20.3007C4.19959 20.3926 4.18274 20.4907 4.18545 20.5892C4.19845 20.7303 4.38216 20.9275 4.52514 20.9643C4.71075 20.9913 4.89951 20.9455 5.05287 20.8364C5.41509 20.5839 5.74785 20.2868 6.1222 19.9844Z" fill="white"/>
</g>
<defs>
<clipPath id="clip0_39_251">
<rect width="31" height="31.5254" fill="white"/>
</clipPath>
</defs>
</svg>
