<svg width="66" height="12" viewBox="0 0 66 12" fill="none" xmlns="http://www.w3.org/2000/svg">
<path d="M10.059 4.20705C10.0302 4.12219 9.97718 4.04764 9.90648 3.99258C9.83578 3.93751 9.7505 3.90436 9.66118 3.89721L7.04822 3.68959L5.91751 1.18663C5.8815 1.10602 5.82293 1.03755 5.74887 0.989483C5.6748 0.94142 5.58841 0.91582 5.50012 0.915772C5.41183 0.915723 5.32541 0.941229 5.25129 0.98921C5.17717 1.03719 5.11853 1.1056 5.08243 1.18617L3.95172 3.68959L1.33876 3.89721C1.25097 3.90417 1.16704 3.93627 1.09702 3.98967C1.02699 4.04308 0.973835 4.11553 0.943906 4.19835C0.913977 4.28118 0.908543 4.37087 0.928254 4.4567C0.947966 4.54254 0.991988 4.62087 1.05505 4.68234L2.98601 6.56471L2.3031 9.52188C2.28236 9.61139 2.28901 9.70507 2.32217 9.79076C2.35534 9.87645 2.41349 9.95019 2.48909 10.0024C2.56469 10.0546 2.65423 10.0829 2.74611 10.0836C2.83799 10.0843 2.92796 10.0574 3.00435 10.0063L5.49997 8.34259L7.9956 10.0063C8.07367 10.0582 8.16574 10.0849 8.25943 10.0828C8.35312 10.0807 8.44393 10.0501 8.51965 9.99485C8.59538 9.93964 8.65238 9.86257 8.68299 9.774C8.7136 9.68543 8.71636 9.58961 8.69089 9.49942L7.8526 6.56609L9.9316 4.69517C10.0677 4.57234 10.1177 4.38076 10.059 4.20705Z" fill="#FFB761"/>
<path d="M24.059 4.20705C24.0302 4.12219 23.9772 4.04764 23.9065 3.99258C23.8358 3.93751 23.7505 3.90436 23.6612 3.89721L21.0482 3.68959L19.9175 1.18663C19.8815 1.10602 19.8229 1.03755 19.7489 0.989483C19.6748 0.94142 19.5884 0.91582 19.5001 0.915772C19.4118 0.915723 19.3254 0.941229 19.2513 0.98921C19.1772 1.03719 19.1185 1.1056 19.0824 1.18617L17.9517 3.68959L15.3388 3.89721C15.251 3.90417 15.167 3.93627 15.097 3.98967C15.027 4.04308 14.9738 4.11553 14.9439 4.19835C14.914 4.28118 14.9085 4.37087 14.9283 4.4567C14.948 4.54254 14.992 4.62087 15.0551 4.68234L16.986 6.56471L16.3031 9.52188C16.2824 9.61139 16.289 9.70507 16.3222 9.79076C16.3553 9.87645 16.4135 9.95019 16.4891 10.0024C16.5647 10.0546 16.6542 10.0829 16.7461 10.0836C16.838 10.0843 16.928 10.0574 17.0043 10.0063L19.5 8.34259L21.9956 10.0063C22.0737 10.0582 22.1657 10.0849 22.2594 10.0828C22.3531 10.0807 22.4439 10.0501 22.5197 9.99485C22.5954 9.93964 22.6524 9.86257 22.683 9.774C22.7136 9.68543 22.7164 9.58961 22.6909 9.49942L21.8526 6.56609L23.9316 4.69517C24.0677 4.57234 24.1177 4.38076 24.059 4.20705Z" fill="#FFB761"/>
<path d="M39.059 4.20705C39.0302 4.12219 38.9772 4.04764 38.9065 3.99258C38.8358 3.93751 38.7505 3.90436 38.6612 3.89721L36.0482 3.68959L34.9175 1.18663C34.8815 1.10602 34.8229 1.03755 34.7489 0.989483C34.6748 0.94142 34.5884 0.91582 34.5001 0.915772C34.4118 0.915723 34.3254 0.941229 34.2513 0.98921C34.1772 1.03719 34.1185 1.1056 34.0824 1.18617L32.9517 3.68959L30.3388 3.89721C30.251 3.90417 30.167 3.93627 30.097 3.98967C30.027 4.04308 29.9738 4.11553 29.9439 4.19835C29.914 4.28118 29.9085 4.37087 29.9283 4.4567C29.948 4.54254 29.992 4.62087 30.0551 4.68234L31.986 6.56471L31.3031 9.52188C31.2824 9.61139 31.289 9.70507 31.3222 9.79076C31.3553 9.87645 31.4135 9.95019 31.4891 10.0024C31.5647 10.0546 31.6542 10.0829 31.7461 10.0836C31.838 10.0843 31.928 10.0574 32.0043 10.0063L34.5 8.34259L36.9956 10.0063C37.0737 10.0582 37.1657 10.0849 37.2594 10.0828C37.3531 10.0807 37.4439 10.0501 37.5197 9.99485C37.5954 9.93964 37.6524 9.86257 37.683 9.774C37.7136 9.68543 37.7164 9.58961 37.6909 9.49942L36.8526 6.56609L38.9316 4.69517C39.0677 4.57234 39.1177 4.38076 39.059 4.20705Z" fill="#FFB761"/>
<path d="M52.059 4.20705C52.0302 4.12219 51.9772 4.04764 51.9065 3.99258C51.8358 3.93751 51.7505 3.90436 51.6612 3.89721L49.0482 3.68959L47.9175 1.18663C47.8815 1.10602 47.8229 1.03755 47.7489 0.989483C47.6748 0.94142 47.5884 0.91582 47.5001 0.915772C47.4118 0.915723 47.3254 0.941229 47.2513 0.98921C47.1772 1.03719 47.1185 1.1056 47.0824 1.18617L45.9517 3.68959L43.3388 3.89721C43.251 3.90417 43.167 3.93627 43.097 3.98967C43.027 4.04308 42.9738 4.11553 42.9439 4.19835C42.914 4.28118 42.9085 4.37087 42.9283 4.4567C42.948 4.54254 42.992 4.62087 43.0551 4.68234L44.986 6.56471L44.3031 9.52188C44.2824 9.61139 44.289 9.70507 44.3222 9.79076C44.3553 9.87645 44.4135 9.95019 44.4891 10.0024C44.5647 10.0546 44.6542 10.0829 44.7461 10.0836C44.838 10.0843 44.928 10.0574 45.0043 10.0063L47.5 8.34259L49.9956 10.0063C50.0737 10.0582 50.1657 10.0849 50.2594 10.0828C50.3531 10.0807 50.4439 10.0501 50.5197 9.99485C50.5954 9.93964 50.6524 9.86257 50.683 9.774C50.7136 9.68543 50.7164 9.58961 50.6909 9.49942L49.8526 6.56609L51.9316 4.69517C52.0677 4.57234 52.1177 4.38076 52.059 4.20705Z" fill="#FFB761"/>
<path d="M65.059 4.20705C65.0302 4.12219 64.9772 4.04764 64.9065 3.99258C64.8358 3.93751 64.7505 3.90436 64.6612 3.89721L62.0482 3.68959L60.9175 1.18663C60.8815 1.10602 60.8229 1.03755 60.7489 0.989483C60.6748 0.94142 60.5884 0.91582 60.5001 0.915772C60.4118 0.915723 60.3254 0.941229 60.2513 0.98921C60.1772 1.03719 60.1185 1.1056 60.0824 1.18617L58.9517 3.68959L56.3388 3.89721C56.251 3.90417 56.167 3.93627 56.097 3.98967C56.027 4.04308 55.9738 4.11553 55.9439 4.19835C55.914 4.28118 55.9085 4.37087 55.9283 4.4567C55.948 4.54254 55.992 4.62087 56.0551 4.68234L57.986 6.56471L57.3031 9.52188C57.2824 9.61139 57.289 9.70507 57.3222 9.79076C57.3553 9.87645 57.4135 9.95019 57.4891 10.0024C57.5647 10.0546 57.6542 10.0829 57.7461 10.0836C57.838 10.0843 57.928 10.0574 58.0043 10.0063L60.5 8.34259L62.9956 10.0063C63.0737 10.0582 63.1657 10.0849 63.2594 10.0828C63.3531 10.0807 63.4439 10.0501 63.5197 9.99485C63.5954 9.93964 63.6524 9.86257 63.683 9.774C63.7136 9.68543 63.7164 9.58961 63.6909 9.49942L62.8526 6.56609L64.9316 4.69517C65.0677 4.57234 65.1177 4.38076 65.059 4.20705Z" fill="#FFB761"/>
<mask id="mask0_144_48" style="mask-type:alpha" maskUnits="userSpaceOnUse" x="61" y="0" width="5" height="12">
<rect x="61" width="5" height="12" fill="#C4C4C4"/>
</mask>
<g mask="url(#mask0_144_48)">
<path d="M65.059 4.20705C65.0302 4.12219 64.9772 4.04764 64.9065 3.99258C64.8358 3.93751 64.7505 3.90436 64.6612 3.89721L62.0482 3.68959L60.9175 1.18663C60.8815 1.10602 60.8229 1.03755 60.7489 0.989483C60.6748 0.94142 60.5884 0.91582 60.5001 0.915772C60.4118 0.915723 60.3254 0.941229 60.2513 0.98921C60.1772 1.03719 60.1185 1.1056 60.0824 1.18617L58.9517 3.68959L56.3388 3.89721C56.251 3.90417 56.167 3.93627 56.097 3.98967C56.027 4.04308 55.9738 4.11553 55.9439 4.19835C55.914 4.28118 55.9085 4.37087 55.9283 4.4567C55.948 4.54254 55.992 4.62087 56.0551 4.68234L57.986 6.56471L57.3031 9.52188C57.2824 9.61139 57.289 9.70507 57.3222 9.79076C57.3553 9.87645 57.4135 9.95019 57.4891 10.0024C57.5647 10.0546 57.6542 10.0829 57.7461 10.0836C57.838 10.0843 57.928 10.0574 58.0043 10.0063L60.5 8.34259L62.9956 10.0063C63.0737 10.0582 63.1657 10.0849 63.2594 10.0828C63.3531 10.0807 63.4439 10.0501 63.5197 9.99485C63.5954 9.93964 63.6524 9.86257 63.683 9.774C63.7136 9.68543 63.7164 9.58961 63.6909 9.49942L62.8526 6.56609L64.9316 4.69517C65.0677 4.57234 65.1177 4.38076 65.059 4.20705Z" fill="#DEDEDE"/>
</g>
</svg>
