<svg width="175" height="47" viewBox="0 0 175 47" fill="none" xmlns="http://www.w3.org/2000/svg">
<path d="M43.3467 21.2031H45.5791L48.8662 30.5986L52.1533 21.2031H54.3857L49.7627 34H47.9697L43.3467 21.2031ZM42.1426 21.2031H44.3662L44.7705 30.3613V34H42.1426V21.2031ZM53.3662 21.2031H55.5986V34H52.9619V30.3613L53.3662 21.2031ZM62.1289 34.1758C61.3906 34.1758 60.7285 34.0586 60.1426 33.8242C59.5566 33.584 59.0586 33.2529 58.6484 32.8311C58.2441 32.4092 57.9336 31.9199 57.7168 31.3633C57.5 30.8008 57.3916 30.2031 57.3916 29.5703V29.2188C57.3916 28.498 57.4941 27.8389 57.6992 27.2412C57.9043 26.6436 58.1973 26.125 58.5781 25.6855C58.9648 25.2461 59.4336 24.9092 59.9844 24.6748C60.5352 24.4346 61.1562 24.3145 61.8477 24.3145C62.5215 24.3145 63.1191 24.4258 63.6406 24.6484C64.1621 24.8711 64.5986 25.1875 64.9502 25.5977C65.3076 26.0078 65.5771 26.5 65.7588 27.0742C65.9404 27.6426 66.0312 28.2754 66.0312 28.9727V30.0273H58.4727V28.3398H63.5439V28.1465C63.5439 27.7949 63.4795 27.4814 63.3506 27.2061C63.2275 26.9248 63.04 26.7021 62.7881 26.5381C62.5361 26.374 62.2139 26.292 61.8213 26.292C61.4873 26.292 61.2002 26.3652 60.96 26.5117C60.7197 26.6582 60.5234 26.8633 60.3711 27.127C60.2246 27.3906 60.1133 27.7012 60.0371 28.0586C59.9668 28.4102 59.9316 28.7969 59.9316 29.2188V29.5703C59.9316 29.9512 59.9844 30.3027 60.0898 30.625C60.2012 30.9473 60.3564 31.2256 60.5557 31.46C60.7607 31.6943 61.0068 31.876 61.2939 32.0049C61.5869 32.1338 61.918 32.1982 62.2871 32.1982C62.7441 32.1982 63.1689 32.1104 63.5615 31.9346C63.96 31.7529 64.3027 31.4805 64.5898 31.1172L65.8203 32.4531C65.6211 32.7402 65.3486 33.0156 65.0029 33.2793C64.6631 33.543 64.2529 33.7598 63.7725 33.9297C63.292 34.0938 62.7441 34.1758 62.1289 34.1758ZM70.0039 26.5645V34H67.4727V24.4902H69.8545L70.0039 26.5645ZM72.8691 24.4287L72.8252 26.7754C72.7021 26.7578 72.5527 26.7432 72.377 26.7314C72.207 26.7139 72.0518 26.7051 71.9111 26.7051C71.5537 26.7051 71.2432 26.752 70.9795 26.8457C70.7217 26.9336 70.5049 27.0654 70.3291 27.2412C70.1592 27.417 70.0303 27.6309 69.9424 27.8828C69.8604 28.1348 69.8135 28.4219 69.8018 28.7441L69.292 28.5859C69.292 27.9707 69.3535 27.4053 69.4766 26.8896C69.5996 26.3682 69.7783 25.9141 70.0127 25.5273C70.2529 25.1406 70.5459 24.8418 70.8916 24.6309C71.2373 24.4199 71.6328 24.3145 72.0781 24.3145C72.2188 24.3145 72.3623 24.3262 72.5088 24.3496C72.6553 24.3672 72.7754 24.3936 72.8691 24.4287ZM77.8174 32.1982C78.1279 32.1982 78.4033 32.1396 78.6436 32.0225C78.8838 31.8994 79.0713 31.7295 79.2061 31.5127C79.3467 31.29 79.4199 31.0293 79.4258 30.7305H81.8076C81.8018 31.3984 81.623 31.9932 81.2715 32.5146C80.9199 33.0303 80.4482 33.4375 79.8564 33.7363C79.2646 34.0293 78.6025 34.1758 77.8701 34.1758C77.1318 34.1758 76.4873 34.0527 75.9365 33.8066C75.3916 33.5605 74.9375 33.2207 74.5742 32.7871C74.2109 32.3477 73.9385 31.8379 73.7568 31.2578C73.5752 30.6719 73.4844 30.0449 73.4844 29.377V29.1221C73.4844 28.4482 73.5752 27.8213 73.7568 27.2412C73.9385 26.6553 74.2109 26.1455 74.5742 25.7119C74.9375 25.2725 75.3916 24.9297 75.9365 24.6836C76.4814 24.4375 77.1201 24.3145 77.8525 24.3145C78.6318 24.3145 79.3145 24.4639 79.9004 24.7627C80.4922 25.0615 80.9551 25.4893 81.2891 26.0459C81.6289 26.5967 81.8018 27.25 81.8076 28.0059H79.4258C79.4199 27.6895 79.3525 27.4023 79.2236 27.1445C79.1006 26.8867 78.9189 26.6816 78.6787 26.5293C78.4443 26.3711 78.1543 26.292 77.8086 26.292C77.4395 26.292 77.1377 26.3711 76.9033 26.5293C76.6689 26.6816 76.4873 26.8926 76.3584 27.1621C76.2295 27.4258 76.1387 27.7275 76.0859 28.0674C76.0391 28.4014 76.0156 28.7529 76.0156 29.1221V29.377C76.0156 29.7461 76.0391 30.1006 76.0859 30.4404C76.1328 30.7803 76.2207 31.082 76.3496 31.3457C76.4844 31.6094 76.6689 31.8174 76.9033 31.9697C77.1377 32.1221 77.4424 32.1982 77.8174 32.1982ZM88.4082 31.8555V27.6191C88.4082 27.3145 88.3584 27.0537 88.2588 26.8369C88.1592 26.6143 88.0039 26.4414 87.793 26.3184C87.5879 26.1953 87.3213 26.1338 86.9932 26.1338C86.7119 26.1338 86.4688 26.1836 86.2637 26.2832C86.0586 26.377 85.9004 26.5146 85.7891 26.6963C85.6777 26.8721 85.6221 27.0801 85.6221 27.3203H83.0908C83.0908 26.916 83.1846 26.5322 83.3721 26.1689C83.5596 25.8057 83.832 25.4863 84.1895 25.2109C84.5469 24.9297 84.9717 24.71 85.4639 24.5518C85.9619 24.3936 86.5186 24.3145 87.1338 24.3145C87.8721 24.3145 88.5283 24.4375 89.1025 24.6836C89.6768 24.9297 90.1279 25.2988 90.4561 25.791C90.79 26.2832 90.957 26.8984 90.957 27.6367V31.7061C90.957 32.2275 90.9893 32.6553 91.0537 32.9893C91.1182 33.3174 91.2119 33.6045 91.335 33.8506V34H88.7773C88.6543 33.7422 88.5605 33.4199 88.4961 33.0332C88.4375 32.6406 88.4082 32.248 88.4082 31.8555ZM88.7422 28.208L88.7598 29.6406H87.3447C87.0107 29.6406 86.7207 29.6787 86.4746 29.7549C86.2285 29.8311 86.0264 29.9395 85.8682 30.0801C85.71 30.2148 85.5928 30.373 85.5166 30.5547C85.4463 30.7363 85.4111 30.9355 85.4111 31.1523C85.4111 31.3691 85.4609 31.5654 85.5605 31.7412C85.6602 31.9111 85.8037 32.0459 85.9912 32.1455C86.1787 32.2393 86.3984 32.2861 86.6504 32.2861C87.0312 32.2861 87.3623 32.21 87.6436 32.0576C87.9248 31.9053 88.1416 31.7178 88.2939 31.4951C88.4521 31.2725 88.5342 31.0615 88.54 30.8623L89.208 31.9346C89.1143 32.1748 88.9854 32.4238 88.8213 32.6816C88.6631 32.9395 88.4609 33.1826 88.2148 33.4111C87.9688 33.6338 87.6729 33.8184 87.3271 33.9648C86.9814 34.1055 86.5713 34.1758 86.0967 34.1758C85.4932 34.1758 84.9453 34.0557 84.4531 33.8154C83.9668 33.5693 83.5801 33.2324 83.293 32.8047C83.0117 32.3711 82.8711 31.8789 82.8711 31.3281C82.8711 30.8301 82.9648 30.3877 83.1523 30.001C83.3398 29.6143 83.6152 29.2891 83.9785 29.0254C84.3477 28.7559 84.8076 28.5537 85.3584 28.4189C85.9092 28.2783 86.5479 28.208 87.2744 28.208H88.7422ZM98.5244 31.9258V20.5H101.073V34H98.7793L98.5244 31.9258ZM92.5127 29.3594V29.1748C92.5127 28.4482 92.5947 27.7891 92.7588 27.1973C92.9229 26.5996 93.1631 26.0869 93.4795 25.6592C93.7959 25.2314 94.1855 24.9004 94.6484 24.666C95.1113 24.4316 95.6387 24.3145 96.2305 24.3145C96.7871 24.3145 97.2734 24.4316 97.6895 24.666C98.1113 24.9004 98.4688 25.2344 98.7617 25.668C99.0605 26.0957 99.3008 26.6025 99.4824 27.1885C99.6641 27.7686 99.7959 28.4043 99.8779 29.0957V29.5C99.7959 30.1621 99.6641 30.7773 99.4824 31.3457C99.3008 31.9141 99.0605 32.4121 98.7617 32.8398C98.4688 33.2617 98.1113 33.5898 97.6895 33.8242C97.2676 34.0586 96.7754 34.1758 96.2129 34.1758C95.6211 34.1758 95.0938 34.0557 94.6309 33.8154C94.1738 33.5752 93.7871 33.2383 93.4707 32.8047C93.1602 32.3711 92.9229 31.8613 92.7588 31.2754C92.5947 30.6895 92.5127 30.0508 92.5127 29.3594ZM95.0439 29.1748V29.3594C95.0439 29.752 95.0732 30.1182 95.1318 30.458C95.1963 30.7979 95.2988 31.0996 95.4395 31.3633C95.5859 31.6211 95.7734 31.8232 96.002 31.9697C96.2363 32.1104 96.5205 32.1807 96.8545 32.1807C97.2881 32.1807 97.6455 32.084 97.9268 31.8906C98.208 31.6914 98.4219 31.4189 98.5684 31.0732C98.7207 30.7275 98.8086 30.3291 98.832 29.8779V28.7266C98.8145 28.3574 98.7617 28.0264 98.6738 27.7334C98.5918 27.4346 98.4688 27.1797 98.3047 26.9688C98.1465 26.7578 97.9473 26.5938 97.707 26.4766C97.4727 26.3594 97.1943 26.3008 96.8721 26.3008C96.5439 26.3008 96.2627 26.377 96.0283 26.5293C95.7939 26.6758 95.6035 26.8779 95.457 27.1357C95.3164 27.3936 95.2109 27.6982 95.1406 28.0498C95.0762 28.3955 95.0439 28.7705 95.0439 29.1748ZM102.646 29.3418V29.1572C102.646 28.46 102.746 27.8184 102.945 27.2324C103.145 26.6406 103.435 26.1279 103.815 25.6943C104.196 25.2607 104.665 24.9238 105.222 24.6836C105.778 24.4375 106.417 24.3145 107.138 24.3145C107.858 24.3145 108.5 24.4375 109.062 24.6836C109.625 24.9238 110.097 25.2607 110.478 25.6943C110.864 26.1279 111.157 26.6406 111.356 27.2324C111.556 27.8184 111.655 28.46 111.655 29.1572V29.3418C111.655 30.0332 111.556 30.6748 111.356 31.2666C111.157 31.8525 110.864 32.3652 110.478 32.8047C110.097 33.2383 109.628 33.5752 109.071 33.8154C108.515 34.0557 107.876 34.1758 107.155 34.1758C106.435 34.1758 105.793 34.0557 105.23 33.8154C104.674 33.5752 104.202 33.2383 103.815 32.8047C103.435 32.3652 103.145 31.8525 102.945 31.2666C102.746 30.6748 102.646 30.0332 102.646 29.3418ZM105.178 29.1572V29.3418C105.178 29.7402 105.213 30.1123 105.283 30.458C105.354 30.8037 105.465 31.1084 105.617 31.3721C105.775 31.6299 105.98 31.832 106.232 31.9785C106.484 32.125 106.792 32.1982 107.155 32.1982C107.507 32.1982 107.809 32.125 108.061 31.9785C108.312 31.832 108.515 31.6299 108.667 31.3721C108.819 31.1084 108.931 30.8037 109.001 30.458C109.077 30.1123 109.115 29.7402 109.115 29.3418V29.1572C109.115 28.7705 109.077 28.4072 109.001 28.0674C108.931 27.7217 108.816 27.417 108.658 27.1533C108.506 26.8838 108.304 26.6729 108.052 26.5205C107.8 26.3682 107.495 26.292 107.138 26.292C106.78 26.292 106.476 26.3682 106.224 26.5205C105.978 26.6729 105.775 26.8838 105.617 27.1533C105.465 27.417 105.354 27.7217 105.283 28.0674C105.213 28.4072 105.178 28.7705 105.178 29.1572Z" fill="white"/>
<path d="M0 17.7564H4.37102L6.81653 5.46957H2.4455L0 17.7564Z" fill="white"/>
<path d="M6.09802 21.2155H10.4659L13.1162 7.91556H16.3055L16.8066 5.46641H13.5921L13.7024 4.90147C13.9072 3.85364 14.2413 2.63538 15.8895 2.63538C16.859 2.60238 17.8247 2.77111 18.7258 3.13089L19.2205 0.542869C18.2089 0.182398 17.1429 -0.0012367 16.0691 6.26788e-06C12.5616 6.26788e-06 10.1413 2.13039 9.25575 5.46641H7.72416L7.25144 7.91556H8.74522L6.09802 21.2155Z" fill="white"/>
<path d="M2.83313 3.54117H7.19785L7.90377 0H3.53275L2.83313 3.54117Z" fill="white"/>
<path d="M19.939 18.0278C25.0979 18.0278 28.6779 13.221 28.6779 9.29793C28.6779 6.45742 26.0307 5.19498 23.5158 5.19498C17.8433 5.19498 14.7738 10.3647 14.7738 13.9248C14.7738 16.7811 17.4462 18.0278 19.939 18.0278Z" fill="white"/>
<path d="M33.7201 18.0278C38.8821 18.0278 42.4622 13.221 42.4622 9.29793C42.4622 6.45742 39.8087 5.19498 37.297 5.19498C31.6244 5.19498 28.5549 10.3647 28.5549 13.9248C28.5549 16.7811 31.2305 18.0278 33.7201 18.0278Z" fill="white"/>
<path d="M49.5656 17.4818H53.9082L57.4 0H53.029L51.989 5.19498C51.4083 5.06557 50.8159 4.99576 50.2211 4.98667C45.9414 4.98667 42.0494 10.5415 42.0494 14.5119C42.0494 16.1436 43.0894 17.7532 44.8574 17.7532C47.3785 17.7532 49.1055 16.4907 49.8303 15.3261H50.1013L49.5656 17.4818Z" fill="white"/>
<path d="M36.1059 27.0101C32.9104 29.7875 28.637 31.2109 23.995 30.9174C18.1397 30.5513 14.0806 25.9276 13.2644 21.2376H13.5417C14.3211 22.9158 15.5149 24.3673 17.0104 25.4547C18.5059 26.5421 20.2537 27.2295 22.0884 27.452C26.0151 27.8938 30.8304 26.0822 33.4713 23.4973L30.509 21.2123L39.3078 21.2376L37.4169 30.7406L36.1059 27.0101Z" fill="white"/>
</svg>
