<svg width="48" height="17" viewBox="0 0 48 17" fill="none" xmlns="http://www.w3.org/2000/svg">
<rect width="48" height="17" rx="8.5" fill="#D00303"/>
<path d="M12.5811 4.04688V14H11.3164L7.33105 6.32324V14H6.07324V4.04688H7.33105L11.3369 11.7441V4.04688H12.5811ZM21.2285 8.16211V9.8916C21.2285 10.5934 21.151 11.2109 20.9961 11.7441C20.8457 12.2728 20.6247 12.7148 20.333 13.0703C20.0413 13.4258 19.6904 13.6924 19.2803 13.8701C18.8701 14.0479 18.4076 14.1367 17.8926 14.1367C17.3958 14.1367 16.9424 14.0479 16.5322 13.8701C16.1221 13.6924 15.7689 13.4258 15.4727 13.0703C15.1764 12.7148 14.9463 12.2728 14.7822 11.7441C14.6227 11.2109 14.543 10.5934 14.543 9.8916V8.16211C14.543 7.46029 14.6227 6.84505 14.7822 6.31641C14.9417 5.7832 15.1696 5.33887 15.4658 4.9834C15.762 4.62793 16.1152 4.36133 16.5254 4.18359C16.9355 4.0013 17.389 3.91016 17.8857 3.91016C18.4007 3.91016 18.8633 4.0013 19.2734 4.18359C19.6882 4.36133 20.0391 4.62793 20.3262 4.9834C20.6178 5.33887 20.8411 5.7832 20.9961 6.31641C21.151 6.84505 21.2285 7.46029 21.2285 8.16211ZM19.9844 9.8916V8.14844C19.9844 7.60156 19.9388 7.13216 19.8477 6.74023C19.7565 6.34375 19.6221 6.02018 19.4443 5.76953C19.2666 5.51888 19.0479 5.33431 18.7881 5.21582C18.5283 5.09277 18.2275 5.03125 17.8857 5.03125C17.5622 5.03125 17.2705 5.09277 17.0107 5.21582C16.7555 5.33431 16.5368 5.51888 16.3545 5.76953C16.1722 6.02018 16.0309 6.34375 15.9307 6.74023C15.835 7.13216 15.7871 7.60156 15.7871 8.14844V9.8916C15.7871 10.443 15.835 10.917 15.9307 11.3135C16.0309 11.7054 16.1722 12.029 16.3545 12.2842C16.5413 12.5348 16.7646 12.7217 17.0244 12.8447C17.2842 12.9632 17.5736 13.0225 17.8926 13.0225C18.2344 13.0225 18.5352 12.9632 18.7949 12.8447C19.0592 12.7217 19.278 12.5348 19.4512 12.2842C19.6289 12.029 19.7611 11.7054 19.8477 11.3135C19.9388 10.917 19.9844 10.443 19.9844 9.8916ZM25.7607 12.4893L28.1533 4.04688H29.5205L26.4307 14H25.4668L25.7607 12.4893ZM23.6143 4.04688L25.9863 12.4893L26.3008 14H25.3369L22.2471 4.04688H23.6143ZM37.252 8.16211V9.8916C37.252 10.5934 37.1745 11.2109 37.0195 11.7441C36.8691 12.2728 36.6481 12.7148 36.3564 13.0703C36.0648 13.4258 35.7139 13.6924 35.3037 13.8701C34.8936 14.0479 34.431 14.1367 33.916 14.1367C33.4193 14.1367 32.9658 14.0479 32.5557 13.8701C32.1455 13.6924 31.7923 13.4258 31.4961 13.0703C31.1999 12.7148 30.9697 12.2728 30.8057 11.7441C30.6462 11.2109 30.5664 10.5934 30.5664 9.8916V8.16211C30.5664 7.46029 30.6462 6.84505 30.8057 6.31641C30.9652 5.7832 31.193 5.33887 31.4893 4.9834C31.7855 4.62793 32.1387 4.36133 32.5488 4.18359C32.959 4.0013 33.4124 3.91016 33.9092 3.91016C34.4242 3.91016 34.8867 4.0013 35.2969 4.18359C35.7116 4.36133 36.0625 4.62793 36.3496 4.9834C36.6413 5.33887 36.8646 5.7832 37.0195 6.31641C37.1745 6.84505 37.252 7.46029 37.252 8.16211ZM36.0078 9.8916V8.14844C36.0078 7.60156 35.9622 7.13216 35.8711 6.74023C35.7799 6.34375 35.6455 6.02018 35.4678 5.76953C35.29 5.51888 35.0713 5.33431 34.8115 5.21582C34.5518 5.09277 34.251 5.03125 33.9092 5.03125C33.5856 5.03125 33.2939 5.09277 33.0342 5.21582C32.779 5.33431 32.5602 5.51888 32.3779 5.76953C32.1956 6.02018 32.0544 6.34375 31.9541 6.74023C31.8584 7.13216 31.8105 7.60156 31.8105 8.14844V9.8916C31.8105 10.443 31.8584 10.917 31.9541 11.3135C32.0544 11.7054 32.1956 12.029 32.3779 12.2842C32.5648 12.5348 32.7881 12.7217 33.0479 12.8447C33.3076 12.9632 33.597 13.0225 33.916 13.0225C34.2578 13.0225 34.5586 12.9632 34.8184 12.8447C35.0827 12.7217 35.3014 12.5348 35.4746 12.2842C35.6523 12.029 35.7845 11.7054 35.8711 11.3135C35.9622 10.917 36.0078 10.443 36.0078 9.8916ZM40.4922 4.04688L40.4033 11.1904H39.3164L39.2207 4.04688H40.4922ZM39.2002 13.3643C39.2002 13.1592 39.2572 12.986 39.3711 12.8447C39.4896 12.7035 39.6605 12.6328 39.8838 12.6328C40.1117 12.6328 40.2826 12.7035 40.3965 12.8447C40.515 12.986 40.5742 13.1592 40.5742 13.3643C40.5742 13.5602 40.515 13.7288 40.3965 13.8701C40.2826 14.0114 40.1117 14.082 39.8838 14.082C39.6605 14.082 39.4896 14.0114 39.3711 13.8701C39.2572 13.7288 39.2002 13.5602 39.2002 13.3643Z" fill="white"/>
</svg>
